<?xml version="1.0" encoding="UTF-8" standalone="no"?><!DOCTYPE svg PUBLIC "-//W3C//DTD SVG 1.1//EN" "http://www.w3.org/Graphics/SVG/1.1/DTD/svg11.dtd"><svg width="100%" height="100%" viewBox="0 0 16 23" version="1.1" xmlns="http://www.w3.org/2000/svg" xmlns:xlink="http://www.w3.org/1999/xlink" xml:space="preserve" style="fill-rule:evenodd;clip-rule:evenodd;stroke-linejoin:round;stroke-miterlimit:1.41421;"><g id="Group"><path id="path0_fill" d="M10.5,4.286l-5.25,0c-0.58,0 -1.05,-0.48 -1.05,-1.072c0,-0.592 0.47,-1.071 1.05,-1.071l5.25,0c0.58,0 1.05,0.479 1.05,1.071c0,0.592 -0.47,1.072 -1.05,1.072Z" style="fill:#0ba3e3;fill-rule:nonzero;"/><path id="path1_fill" d="M11.55,3.214l3.15,0c0.58,0 1.05,0.48 1.05,1.072l0,12.857c0,0.592 -0.47,1.071 -1.05,1.071l-13.65,0c-0.58,0 -1.05,-0.479 -1.05,-1.071l0,-12.857c0,-0.592 0.47,-1.072 1.05,-1.072l3.15,0c0,0.592 0.47,1.072 1.05,1.072l5.25,0c0.58,0 1.05,-0.48 1.05,-1.072Z" style="fill:#30c2ff;fill-rule:nonzero;"/><g id="Group1"><path id="path2_fill" d="M10.501,2.143c0.472,0 0.866,0.32 0.998,0.756l-0.329,-2.016c-0.083,-0.51 -0.515,-0.883 -1.021,-0.883c-0.64,0 -1.128,0.587 -1.022,1.231l0.149,0.912l1.225,0Z" style="fill:#0ba3e3;fill-rule:nonzero;"/><path id="path3_fill" d="M5.251,2.143l1.225,0l0.149,-0.912c0.105,-0.644 -0.382,-1.231 -1.022,-1.231c-0.506,0 -0.938,0.373 -1.021,0.883l-0.33,2.016c0.133,-0.436 0.527,-0.756 0.999,-0.756Z" style="fill:#0ba3e3;fill-rule:nonzero;"/><path id="path4_fill" d="M13.996,18.214l-1.925,0c0,0.163 -0.038,0.315 -0.101,0.452l0.482,2.951c0.083,0.51 0.515,0.883 1.022,0.883c0.64,0 1.126,-0.587 1.021,-1.231l-0.499,-3.055Z" style="fill:#0ba3e3;fill-rule:nonzero;"/><path id="path5_fill" d="M3.676,18.214l-1.925,0l-0.499,3.055c-0.106,0.644 0.382,1.231 1.022,1.231c0.506,0 0.938,-0.373 1.021,-0.883l0.482,-2.951c-0.063,-0.137 -0.101,-0.289 -0.101,-0.452Z" style="fill:#0ba3e3;fill-rule:nonzero;"/></g><path id="path6_fill" d="M7.875,21.964c-0.58,0 -1.05,-0.479 -1.05,-1.071l0,-1.607l2.1,0l0,1.607c0,0.592 -0.47,1.071 -1.05,1.071Z" style="fill:#0ba3e3;fill-rule:nonzero;"/><path id="path7_fill" d="M13.275,19.286l-10.8,0c-0.58,0 -1.05,-0.48 -1.05,-1.072c0,-0.592 0.47,-1.071 1.05,-1.071l10.8,0c0.58,0 1.05,0.479 1.05,1.071c0,0.592 -0.47,1.072 -1.05,1.072Z" style="fill:#0ba3e3;fill-rule:nonzero;"/></g></svg>